<?xml version="1.0" encoding="UTF-8" standalone="no"?><svg xmlns="http://www.w3.org/2000/svg" xmlns:xlink="http://www.w3.org/1999/xlink" contentScriptType="application/ecmascript" contentStyleType="text/css" height="1103px" preserveAspectRatio="none" style="width:1318px;height:1103px;" version="1.1" viewBox="0 0 1318 1103" width="1318px" zoomAndPan="magnify"><defs><filter height="300%" id="f1t7ya5mjpv474" width="300%" x="-1" y="-1"><feGaussianBlur result="blurOut" stdDeviation="2.0"/><feColorMatrix in="blurOut" result="blurOut2" type="matrix" values="0 0 0 0 0 0 0 0 0 0 0 0 0 0 0 0 0 0 .4 0"/><feOffset dx="4.0" dy="4.0" in="blurOut2" result="blurOut3"/><feBlend in="SourceGraphic" in2="blurOut3" mode="normal"/></filter></defs><g><line style="stroke: #A80036; stroke-width: 1.0; stroke-dasharray: 5.0,5.0;" x1="65" x2="65" y1="86.2969" y2="1015.8047"/><line style="stroke: #A80036; stroke-width: 1.0; stroke-dasharray: 5.0,5.0;" x1="205" x2="205" y1="86.2969" y2="1015.8047"/><line style="stroke: #A80036; stroke-width: 1.0; stroke-dasharray: 5.0,5.0;" x1="347" x2="347" y1="86.2969" y2="1015.8047"/><line style="stroke: #A80036; stroke-width: 1.0; stroke-dasharray: 5.0,5.0;" x1="477" x2="477" y1="86.2969" y2="1015.8047"/><line style="stroke: #A80036; stroke-width: 1.0; stroke-dasharray: 5.0,5.0;" x1="591" x2="591" y1="86.2969" y2="1015.8047"/><line style="stroke: #A80036; stroke-width: 1.0; stroke-dasharray: 5.0,5.0;" x1="710" x2="710" y1="86.2969" y2="1015.8047"/><line style="stroke: #A80036; stroke-width: 1.0; stroke-dasharray: 5.0,5.0;" x1="828" x2="828" y1="86.2969" y2="1015.8047"/><line style="stroke: #A80036; stroke-width: 1.0; stroke-dasharray: 5.0,5.0;" x1="996" x2="996" y1="86.2969" y2="1015.8047"/><line style="stroke: #A80036; stroke-width: 1.0; stroke-dasharray: 5.0,5.0;" x1="1174" x2="1174" y1="86.2969" y2="1015.8047"/><line style="stroke: #A80036; stroke-width: 1.0; stroke-dasharray: 5.0,5.0;" x1="1285" x2="1285" y1="86.2969" y2="1015.8047"/><text fill="#000000" font-family="sans-serif" font-size="14" lengthAdjust="spacingAndGlyphs" textLength="109" x="8" y="82.9951">App Developer</text><ellipse cx="65.5" cy="13" fill="#FEFECE" filter="url(#f1t7ya5mjpv474)" rx="8" ry="8" style="stroke: #A80036; stroke-width: 2.0;"/><path d="M65.5,21 L65.5,48 M52.5,29 L78.5,29 M65.5,48 L52.5,63 M65.5,48 L78.5,63 " fill="none" filter="url(#f1t7ya5mjpv474)" style="stroke: #A80036; stroke-width: 2.0;"/><text fill="#000000" font-family="sans-serif" font-size="14" lengthAdjust="spacingAndGlyphs" textLength="109" x="8" y="1027.7998">App Developer</text><ellipse cx="65.5" cy="1041.1016" fill="#FEFECE" filter="url(#f1t7ya5mjpv474)" rx="8" ry="8" style="stroke: #A80036; stroke-width: 2.0;"/><path d="M65.5,1049.1016 L65.5,1076.1016 M52.5,1057.1016 L78.5,1057.1016 M65.5,1076.1016 L52.5,1091.1016 M65.5,1076.1016 L78.5,1091.1016 " fill="none" filter="url(#f1t7ya5mjpv474)" style="stroke: #A80036; stroke-width: 2.0;"/><text fill="#000000" font-family="sans-serif" font-size="14" lengthAdjust="spacingAndGlyphs" textLength="139" x="133" y="82.9951">Cloud.gov Engineer</text><ellipse cx="205.5" cy="13" fill="#FEFECE" filter="url(#f1t7ya5mjpv474)" rx="8" ry="8" style="stroke: #A80036; stroke-width: 2.0;"/><path d="M205.5,21 L205.5,48 M192.5,29 L218.5,29 M205.5,48 L192.5,63 M205.5,48 L218.5,63 " fill="none" filter="url(#f1t7ya5mjpv474)" style="stroke: #A80036; stroke-width: 2.0;"/><text fill="#000000" font-family="sans-serif" font-size="14" lengthAdjust="spacingAndGlyphs" textLength="139" x="133" y="1027.7998">Cloud.gov Engineer</text><ellipse cx="205.5" cy="1041.1016" fill="#FEFECE" filter="url(#f1t7ya5mjpv474)" rx="8" ry="8" style="stroke: #A80036; stroke-width: 2.0;"/><path d="M205.5,1049.1016 L205.5,1076.1016 M192.5,1057.1016 L218.5,1057.1016 M205.5,1076.1016 L192.5,1091.1016 M205.5,1076.1016 L218.5,1091.1016 " fill="none" filter="url(#f1t7ya5mjpv474)" style="stroke: #A80036; stroke-width: 2.0;"/><text fill="#000000" font-family="sans-serif" font-size="14" lengthAdjust="spacingAndGlyphs" textLength="113" x="288" y="82.9951">Portfolio Owner</text><ellipse cx="347.5" cy="13" fill="#FEFECE" filter="url(#f1t7ya5mjpv474)" rx="8" ry="8" style="stroke: #A80036; stroke-width: 2.0;"/><path d="M347.5,21 L347.5,48 M334.5,29 L360.5,29 M347.5,48 L334.5,63 M347.5,48 L360.5,63 " fill="none" filter="url(#f1t7ya5mjpv474)" style="stroke: #A80036; stroke-width: 2.0;"/><text fill="#000000" font-family="sans-serif" font-size="14" lengthAdjust="spacingAndGlyphs" textLength="113" x="288" y="1027.7998">Portfolio Owner</text><ellipse cx="347.5" cy="1041.1016" fill="#FEFECE" filter="url(#f1t7ya5mjpv474)" rx="8" ry="8" style="stroke: #A80036; stroke-width: 2.0;"/><path d="M347.5,1049.1016 L347.5,1076.1016 M334.5,1057.1016 L360.5,1057.1016 M347.5,1076.1016 L334.5,1091.1016 M347.5,1076.1016 L360.5,1091.1016 " fill="none" filter="url(#f1t7ya5mjpv474)" style="stroke: #A80036; stroke-width: 2.0;"/><text fill="#000000" font-family="sans-serif" font-size="14" lengthAdjust="spacingAndGlyphs" textLength="114" x="417" y="82.9951">Security Official</text><ellipse cx="477" cy="13" fill="#FEFECE" filter="url(#f1t7ya5mjpv474)" rx="8" ry="8" style="stroke: #A80036; stroke-width: 2.0;"/><path d="M477,21 L477,48 M464,29 L490,29 M477,48 L464,63 M477,48 L490,63 " fill="none" filter="url(#f1t7ya5mjpv474)" style="stroke: #A80036; stroke-width: 2.0;"/><text fill="#000000" font-family="sans-serif" font-size="14" lengthAdjust="spacingAndGlyphs" textLength="114" x="417" y="1027.7998">Security Official</text><ellipse cx="477" cy="1041.1016" fill="#FEFECE" filter="url(#f1t7ya5mjpv474)" rx="8" ry="8" style="stroke: #A80036; stroke-width: 2.0;"/><path d="M477,1049.1016 L477,1076.1016 M464,1057.1016 L490,1057.1016 M477,1076.1016 L464,1091.1016 M477,1076.1016 L490,1091.1016 " fill="none" filter="url(#f1t7ya5mjpv474)" style="stroke: #A80036; stroke-width: 2.0;"/><rect fill="#FEFECE" filter="url(#f1t7ya5mjpv474)" height="30.2969" style="stroke: #A80036; stroke-width: 1.5;" width="85" x="547" y="51"/><text fill="#000000" font-family="sans-serif" font-size="14" lengthAdjust="spacingAndGlyphs" textLength="71" x="554" y="70.9951">Cloud.gov</text><rect fill="#FEFECE" filter="url(#f1t7ya5mjpv474)" height="30.2969" style="stroke: #A80036; stroke-width: 1.5;" width="85" x="547" y="1014.8047"/><text fill="#000000" font-family="sans-serif" font-size="14" lengthAdjust="spacingAndGlyphs" textLength="71" x="554" y="1034.7998">Cloud.gov</text><rect fill="#FEFECE" filter="url(#f1t7ya5mjpv474)" height="30.2969" style="stroke: #A80036; stroke-width: 1.5;" width="63" x="677" y="51"/><text fill="#000000" font-family="sans-serif" font-size="14" lengthAdjust="spacingAndGlyphs" textLength="49" x="684" y="70.9951">Github</text><rect fill="#FEFECE" filter="url(#f1t7ya5mjpv474)" height="30.2969" style="stroke: #A80036; stroke-width: 1.5;" width="63" x="677" y="1014.8047"/><text fill="#000000" font-family="sans-serif" font-size="14" lengthAdjust="spacingAndGlyphs" textLength="49" x="684" y="1034.7998">Github</text><rect fill="#FEFECE" filter="url(#f1t7ya5mjpv474)" height="30.2969" style="stroke: #A80036; stroke-width: 1.5;" width="144" x="754" y="51"/><text fill="#000000" font-family="sans-serif" font-size="14" lengthAdjust="spacingAndGlyphs" textLength="130" x="761" y="70.9951">Vuls Repo UI &amp; API</text><rect fill="#FEFECE" filter="url(#f1t7ya5mjpv474)" height="30.2969" style="stroke: #A80036; stroke-width: 1.5;" width="144" x="754" y="1014.8047"/><text fill="#000000" font-family="sans-serif" font-size="14" lengthAdjust="spacingAndGlyphs" textLength="130" x="761" y="1034.7998">Vuls Repo UI &amp; API</text><rect fill="#FEFECE" filter="url(#f1t7ya5mjpv474)" height="30.2969" style="stroke: #A80036; stroke-width: 1.5;" width="165" x="912" y="51"/><text fill="#000000" font-family="sans-serif" font-size="14" lengthAdjust="spacingAndGlyphs" textLength="151" x="919" y="70.9951">Vuls Scan API Service</text><rect fill="#FEFECE" filter="url(#f1t7ya5mjpv474)" height="30.2969" style="stroke: #A80036; stroke-width: 1.5;" width="165" x="912" y="1014.8047"/><text fill="#000000" font-family="sans-serif" font-size="14" lengthAdjust="spacingAndGlyphs" textLength="151" x="919" y="1034.7998">Vuls Scan API Service</text><rect fill="#FEFECE" filter="url(#f1t7ya5mjpv474)" height="30.2969" style="stroke: #A80036; stroke-width: 1.5;" width="163" x="1091" y="51"/><text fill="#000000" font-family="sans-serif" font-size="14" lengthAdjust="spacingAndGlyphs" textLength="149" x="1098" y="70.9951">Vuls Vulnerability DB</text><rect fill="#FEFECE" filter="url(#f1t7ya5mjpv474)" height="30.2969" style="stroke: #A80036; stroke-width: 1.5;" width="163" x="1091" y="1014.8047"/><text fill="#000000" font-family="sans-serif" font-size="14" lengthAdjust="spacingAndGlyphs" textLength="149" x="1098" y="1034.7998">Vuls Vulnerability DB</text><rect fill="#FEFECE" filter="url(#f1t7ya5mjpv474)" height="30.2969" style="stroke: #A80036; stroke-width: 1.5;" width="31" x="1268" y="51"/><text fill="#000000" font-family="sans-serif" font-size="14" lengthAdjust="spacingAndGlyphs" textLength="17" x="1275" y="70.9951">ce</text><rect fill="#FEFECE" filter="url(#f1t7ya5mjpv474)" height="30.2969" style="stroke: #A80036; stroke-width: 1.5;" width="31" x="1268" y="1014.8047"/><text fill="#000000" font-family="sans-serif" font-size="14" lengthAdjust="spacingAndGlyphs" textLength="17" x="1275" y="1034.7998">ce</text><polygon fill="#A80036" points="579.5,143.6953,589.5,147.6953,579.5,151.6953,583.5,147.6953" style="stroke: #A80036; stroke-width: 1.0;"/><line style="stroke: #A80036; stroke-width: 1.0;" x1="65.5" x2="585.5" y1="147.6953" y2="147.6953"/><text fill="#000000" font-family="sans-serif" font-size="13" lengthAdjust="spacingAndGlyphs" textLength="73" x="72.5" y="112.3638">Deploy app</text><text fill="#000000" font-family="sans-serif" font-size="13" lengthAdjust="spacingAndGlyphs" textLength="92" x="72.5" y="127.4966">with manifest.</text><text fill="#000000" font-family="sans-serif" font-size="13" lengthAdjust="spacingAndGlyphs" textLength="24" x="72.5" y="142.6294">yml</text><polygon fill="#A80036" points="698.5,203.0938,708.5,207.0938,698.5,211.0938,702.5,207.0938" style="stroke: #A80036; stroke-width: 1.0;"/><line style="stroke: #A80036; stroke-width: 1.0;" x1="591.5" x2="704.5" y1="207.0938" y2="207.0938"/><text fill="#000000" font-family="sans-serif" font-size="13" lengthAdjust="spacingAndGlyphs" textLength="86" x="598.5" y="171.7622">Pull buildpack</text><text fill="#000000" font-family="sans-serif" font-size="13" lengthAdjust="spacingAndGlyphs" textLength="91" x="598.5" y="186.895">contents from</text><text fill="#000000" font-family="sans-serif" font-size="13" lengthAdjust="spacingAndGlyphs" textLength="42" x="598.5" y="202.0278">Github</text><polygon fill="#A80036" points="602.5,292.7578,592.5,296.7578,602.5,300.7578,598.5,296.7578" style="stroke: #A80036; stroke-width: 1.0;"/><line style="stroke: #A80036; stroke-width: 1.0;" x1="596.5" x2="709.5" y1="296.7578" y2="296.7578"/><text fill="#000000" font-family="sans-serif" font-size="13" lengthAdjust="spacingAndGlyphs" textLength="60" x="608.5" y="231.1606">Buildpack</text><text fill="#000000" font-family="sans-serif" font-size="13" lengthAdjust="spacingAndGlyphs" textLength="84" x="608.5" y="246.2935">configuration</text><text fill="#000000" font-family="sans-serif" font-size="13" lengthAdjust="spacingAndGlyphs" textLength="24" x="608.5" y="261.4263">and</text><text fill="#000000" font-family="sans-serif" font-size="13" lengthAdjust="spacingAndGlyphs" textLength="78" x="608.5" y="276.5591">executables</text><text fill="#000000" font-family="sans-serif" font-size="13" lengthAdjust="spacingAndGlyphs" textLength="87" x="608.5" y="291.6919">staged in app</text><polygon fill="#A80036" points="984.5,382.4219,994.5,386.4219,984.5,390.4219,988.5,386.4219" style="stroke: #A80036; stroke-width: 1.0;"/><line style="stroke: #A80036; stroke-width: 1.0;" x1="591.5" x2="990.5" y1="386.4219" y2="386.4219"/><text fill="#000000" font-family="sans-serif" font-size="13" lengthAdjust="spacingAndGlyphs" textLength="59" x="598.5" y="320.8247">Scan app</text><text fill="#000000" font-family="sans-serif" font-size="13" lengthAdjust="spacingAndGlyphs" textLength="82" x="598.5" y="335.9575">instance and</text><text fill="#000000" font-family="sans-serif" font-size="13" lengthAdjust="spacingAndGlyphs" textLength="81" x="598.5" y="351.0903">POST to vuls</text><text fill="#000000" font-family="sans-serif" font-size="13" lengthAdjust="spacingAndGlyphs" textLength="72" x="598.5" y="366.2231">server with</text><text fill="#000000" font-family="sans-serif" font-size="13" lengthAdjust="spacingAndGlyphs" textLength="57" x="598.5" y="381.356">HTTP API</text><polygon fill="#A80036" points="1162.5,487.2188,1172.5,491.2188,1162.5,495.2188,1166.5,491.2188" style="stroke: #A80036; stroke-width: 1.0;"/><line style="stroke: #A80036; stroke-width: 1.0;" x1="996.5" x2="1168.5" y1="491.2188" y2="491.2188"/><text fill="#000000" font-family="sans-serif" font-size="13" lengthAdjust="spacingAndGlyphs" textLength="51" x="1003.5" y="410.4888">Analyze</text><text fill="#000000" font-family="sans-serif" font-size="13" lengthAdjust="spacingAndGlyphs" textLength="89" x="1003.5" y="425.6216">dependencies</text><text fill="#000000" font-family="sans-serif" font-size="13" lengthAdjust="spacingAndGlyphs" textLength="18" x="1003.5" y="440.7544">for</text><text fill="#000000" font-family="sans-serif" font-size="13" lengthAdjust="spacingAndGlyphs" textLength="88" x="1003.5" y="455.8872">vulnerabilities</text><text fill="#000000" font-family="sans-serif" font-size="13" lengthAdjust="spacingAndGlyphs" textLength="59" x="1003.5" y="471.02">and save</text><text fill="#000000" font-family="sans-serif" font-size="13" lengthAdjust="spacingAndGlyphs" textLength="91" x="1003.5" y="486.1528">analysis to DB</text><polygon fill="#A80036" points="1007.5,546.6172,997.5,550.6172,1007.5,554.6172,1003.5,550.6172" style="stroke: #A80036; stroke-width: 1.0;"/><line style="stroke: #A80036; stroke-width: 1.0;" x1="1001.5" x2="1173.5" y1="550.6172" y2="550.6172"/><text fill="#000000" font-family="sans-serif" font-size="13" lengthAdjust="spacingAndGlyphs" textLength="73" x="1013.5" y="515.2856">Enrich scan</text><text fill="#000000" font-family="sans-serif" font-size="13" lengthAdjust="spacingAndGlyphs" textLength="91" x="1013.5" y="530.4185">data with vuln</text><text fill="#000000" font-family="sans-serif" font-size="13" lengthAdjust="spacingAndGlyphs" textLength="76" x="1013.5" y="545.5513">annotations</text><polygon fill="#A80036" points="602.5,621.1484,592.5,625.1484,602.5,629.1484,598.5,625.1484" style="stroke: #A80036; stroke-width: 1.0;"/><line style="stroke: #A80036; stroke-width: 1.0;" x1="596.5" x2="995.5" y1="625.1484" y2="625.1484"/><text fill="#000000" font-family="sans-serif" font-size="13" lengthAdjust="spacingAndGlyphs" textLength="96" x="608.5" y="574.6841">Scan data sent</text><text fill="#000000" font-family="sans-serif" font-size="13" lengthAdjust="spacingAndGlyphs" textLength="78" x="608.5" y="589.8169">in response,</text><text fill="#000000" font-family="sans-serif" font-size="13" lengthAdjust="spacingAndGlyphs" textLength="97" x="608.5" y="604.9497">annotated with</text><text fill="#000000" font-family="sans-serif" font-size="13" lengthAdjust="spacingAndGlyphs" textLength="52" x="608.5" y="620.0825">analysis</text><polygon fill="#A80036" points="76.5,695.6797,66.5,699.6797,76.5,703.6797,72.5,699.6797" style="stroke: #A80036; stroke-width: 1.0;"/><line style="stroke: #A80036; stroke-width: 1.0;" x1="70.5" x2="590.5" y1="699.6797" y2="699.6797"/><text fill="#000000" font-family="sans-serif" font-size="13" lengthAdjust="spacingAndGlyphs" textLength="35" x="82.5" y="649.2153">Show</text><text fill="#000000" font-family="sans-serif" font-size="13" lengthAdjust="spacingAndGlyphs" textLength="77" x="82.5" y="664.3481">deployment</text><text fill="#000000" font-family="sans-serif" font-size="13" lengthAdjust="spacingAndGlyphs" textLength="57" x="82.5" y="679.481">with vuls</text><text fill="#000000" font-family="sans-serif" font-size="13" lengthAdjust="spacingAndGlyphs" textLength="60" x="82.5" y="694.6138">buildpack</text><polygon fill="#A80036" points="816,770.2109,826,774.2109,816,778.2109,820,774.2109" style="stroke: #A80036; stroke-width: 1.0;"/><line style="stroke: #A80036; stroke-width: 1.0;" x1="65.5" x2="822" y1="774.2109" y2="774.2109"/><text fill="#000000" font-family="sans-serif" font-size="13" lengthAdjust="spacingAndGlyphs" textLength="61" x="72.5" y="723.7466">Read app</text><text fill="#000000" font-family="sans-serif" font-size="13" lengthAdjust="spacingAndGlyphs" textLength="98" x="72.5" y="738.8794">instance status</text><text fill="#000000" font-family="sans-serif" font-size="13" lengthAdjust="spacingAndGlyphs" textLength="74" x="72.5" y="754.0122">from report</text><text fill="#000000" font-family="sans-serif" font-size="13" lengthAdjust="spacingAndGlyphs" textLength="57" x="72.5" y="769.145">server UI</text><polygon fill="#A80036" points="839,844.7422,829,848.7422,839,852.7422,835,848.7422" style="stroke: #A80036; stroke-width: 1.0;"/><line style="stroke: #A80036; stroke-width: 1.0;" x1="833" x2="1284.5" y1="848.7422" y2="848.7422"/><text fill="#000000" font-family="sans-serif" font-size="13" lengthAdjust="spacingAndGlyphs" textLength="61" x="845" y="798.2778">Read app</text><text fill="#000000" font-family="sans-serif" font-size="13" lengthAdjust="spacingAndGlyphs" textLength="98" x="845" y="813.4106">instance status</text><text fill="#000000" font-family="sans-serif" font-size="13" lengthAdjust="spacingAndGlyphs" textLength="74" x="845" y="828.5435">from report</text><text fill="#000000" font-family="sans-serif" font-size="13" lengthAdjust="spacingAndGlyphs" textLength="57" x="845" y="843.6763">server UI</text><polygon fill="#A80036" points="816,919.2734,826,923.2734,816,927.2734,820,923.2734" style="stroke: #A80036; stroke-width: 1.0;"/><line style="stroke: #A80036; stroke-width: 1.0;" x1="477" x2="822" y1="923.2734" y2="923.2734"/><text fill="#000000" font-family="sans-serif" font-size="13" lengthAdjust="spacingAndGlyphs" textLength="61" x="484" y="872.8091">Read app</text><text fill="#000000" font-family="sans-serif" font-size="13" lengthAdjust="spacingAndGlyphs" textLength="98" x="484" y="887.9419">instance status</text><text fill="#000000" font-family="sans-serif" font-size="13" lengthAdjust="spacingAndGlyphs" textLength="74" x="484" y="903.0747">from report</text><text fill="#000000" font-family="sans-serif" font-size="13" lengthAdjust="spacingAndGlyphs" textLength="57" x="484" y="918.2075">server UI</text><polygon fill="#A80036" points="816,993.8047,826,997.8047,816,1001.8047,820,997.8047" style="stroke: #A80036; stroke-width: 1.0;"/><line style="stroke: #A80036; stroke-width: 1.0;" x1="347.5" x2="822" y1="997.8047" y2="997.8047"/><text fill="#000000" font-family="sans-serif" font-size="13" lengthAdjust="spacingAndGlyphs" textLength="61" x="354.5" y="947.3403">Read app</text><text fill="#000000" font-family="sans-serif" font-size="13" lengthAdjust="spacingAndGlyphs" textLength="98" x="354.5" y="962.4731">instance status</text><text fill="#000000" font-family="sans-serif" font-size="13" lengthAdjust="spacingAndGlyphs" textLength="74" x="354.5" y="977.606">from report</text><text fill="#000000" font-family="sans-serif" font-size="13" lengthAdjust="spacingAndGlyphs" textLength="57" x="354.5" y="992.7388">server UI</text><!--MD5=[899cc5838c01e01cd1202ff9871e45cf]
@startuml
skinparam maxMessageSize 100
actor "App Developer" as dev
actor "Cloud.gov Engineer" as ceng
actor "Portfolio Owner" as po
actor "Security Official" as so
participant Cloud.gov as cg
participant Github as gh
participant "Vuls Repo UI & API" as vso
participant "Vuls Scan API Service" as vsa
participant "Vuls Vulnerability DB" as vdb


dev->cg: Deploy app with manifest.yml
cg->gh: Pull buildpack contents from Github
gh->cg: Buildpack configuration and executables staged in app
cg->vsa: Scan app instance and POST to vuls server with HTTP API
vsa->vdb: Analyze dependencies for vulnerabilities and save analysis to DB
vdb->vsa: Enrich scan data with vuln annotations
vsa->cg: Scan data sent in response, annotated with analysis
cg->dev: Show deployment with vuls buildpack
dev->vso: Read app instance status from report server UI
ce->vso: Read app instance status from report server UI
so->vso: Read app instance status from report server UI
po->vso: Read app instance status from report server UI
@enduml

PlantUML version 1.2020.17(Sat Sep 19 12:30:11 UTC 2020)
(GPL source distribution)
Java Runtime: Java(TM) SE Runtime Environment
JVM: Java HotSpot(TM) 64-Bit Server VM
Default Encoding: UTF-8
Language: en
Country: US
--></g></svg>
