<?xml version="1.0" encoding="UTF-8" standalone="no"?>
<svg xmlns="http://www.w3.org/2000/svg" xmlns:xlink="http://www.w3.org/1999/xlink" contentScriptType="application/ecmascript" contentStyleType="text/css" height="543px" preserveAspectRatio="none" style="width:1787px;height:543px;" version="1.1" viewBox="0 0 1787 543" width="1787px" zoomAndPan="magnify"><defs><filter height="300%" id="fxtebhmpbxu2q" width="300%" x="-1" y="-1"><feGaussianBlur result="blurOut" stdDeviation="2.0"/><feColorMatrix in="blurOut" result="blurOut2" type="matrix" values="0 0 0 0 0 0 0 0 0 0 0 0 0 0 0 0 0 0 .4 0"/><feOffset dx="4.0" dy="4.0" in="blurOut2" result="blurOut3"/><feBlend in="SourceGraphic" in2="blurOut3" mode="normal"/></filter></defs><g><line style="stroke: #A80036; stroke-width: 1.0; stroke-dasharray: 5.0,5.0;" x1="62" x2="62" y1="86.2969" y2="455.8906"/><line style="stroke: #A80036; stroke-width: 1.0; stroke-dasharray: 5.0,5.0;" x1="196" x2="196" y1="86.2969" y2="455.8906"/><line style="stroke: #A80036; stroke-width: 1.0; stroke-dasharray: 5.0,5.0;" x1="332" x2="332" y1="86.2969" y2="455.8906"/><line style="stroke: #A80036; stroke-width: 1.0; stroke-dasharray: 5.0,5.0;" x1="452" x2="452" y1="86.2969" y2="455.8906"/><line style="stroke: #A80036; stroke-width: 1.0; stroke-dasharray: 5.0,5.0;" x1="560" x2="560" y1="86.2969" y2="455.8906"/><line style="stroke: #A80036; stroke-width: 1.0; stroke-dasharray: 5.0,5.0;" x1="932.5" x2="932.5" y1="86.2969" y2="455.8906"/><line style="stroke: #A80036; stroke-width: 1.0; stroke-dasharray: 5.0,5.0;" x1="1047.5" x2="1047.5" y1="86.2969" y2="455.8906"/><line style="stroke: #A80036; stroke-width: 1.0; stroke-dasharray: 5.0,5.0;" x1="1212.5" x2="1212.5" y1="86.2969" y2="455.8906"/><line style="stroke: #A80036; stroke-width: 1.0; stroke-dasharray: 5.0,5.0;" x1="1648.5" x2="1648.5" y1="86.2969" y2="455.8906"/><line style="stroke: #A80036; stroke-width: 1.0; stroke-dasharray: 5.0,5.0;" x1="1754.5" x2="1754.5" y1="86.2969" y2="455.8906"/><text fill="#000000" font-family="sans-serif" font-size="14" lengthAdjust="spacingAndGlyphs" textLength="102" x="8" y="82.9951">App Developer</text><ellipse cx="62" cy="13" fill="#FEFECE" filter="url(#fxtebhmpbxu2q)" rx="8" ry="8" style="stroke: #A80036; stroke-width: 2.0;"/><path d="M62,21 L62,48 M49,29 L75,29 M62,48 L49,63 M62,48 L75,63 " fill="none" filter="url(#fxtebhmpbxu2q)" style="stroke: #A80036; stroke-width: 2.0;"/><text fill="#000000" font-family="sans-serif" font-size="14" lengthAdjust="spacingAndGlyphs" textLength="102" x="8" y="467.8857">App Developer</text><ellipse cx="62" cy="481.1875" fill="#FEFECE" filter="url(#fxtebhmpbxu2q)" rx="8" ry="8" style="stroke: #A80036; stroke-width: 2.0;"/><path d="M62,489.1875 L62,516.1875 M49,497.1875 L75,497.1875 M62,516.1875 L49,531.1875 M62,516.1875 L75,531.1875 " fill="none" filter="url(#fxtebhmpbxu2q)" style="stroke: #A80036; stroke-width: 2.0;"/><text fill="#000000" font-family="sans-serif" font-size="14" lengthAdjust="spacingAndGlyphs" textLength="135" x="126" y="82.9951">Cloud.gov Engineer</text><ellipse cx="196.5" cy="13" fill="#FEFECE" filter="url(#fxtebhmpbxu2q)" rx="8" ry="8" style="stroke: #A80036; stroke-width: 2.0;"/><path d="M196.5,21 L196.5,48 M183.5,29 L209.5,29 M196.5,48 L183.5,63 M196.5,48 L209.5,63 " fill="none" filter="url(#fxtebhmpbxu2q)" style="stroke: #A80036; stroke-width: 2.0;"/><text fill="#000000" font-family="sans-serif" font-size="14" lengthAdjust="spacingAndGlyphs" textLength="135" x="126" y="467.8857">Cloud.gov Engineer</text><ellipse cx="196.5" cy="481.1875" fill="#FEFECE" filter="url(#fxtebhmpbxu2q)" rx="8" ry="8" style="stroke: #A80036; stroke-width: 2.0;"/><path d="M196.5,489.1875 L196.5,516.1875 M183.5,497.1875 L209.5,497.1875 M196.5,516.1875 L183.5,531.1875 M196.5,516.1875 L209.5,531.1875 " fill="none" filter="url(#fxtebhmpbxu2q)" style="stroke: #A80036; stroke-width: 2.0;"/><text fill="#000000" font-family="sans-serif" font-size="14" lengthAdjust="spacingAndGlyphs" textLength="105" x="277" y="82.9951">Portfolio Owner</text><ellipse cx="332.5" cy="13" fill="#FEFECE" filter="url(#fxtebhmpbxu2q)" rx="8" ry="8" style="stroke: #A80036; stroke-width: 2.0;"/><path d="M332.5,21 L332.5,48 M319.5,29 L345.5,29 M332.5,48 L319.5,63 M332.5,48 L345.5,63 " fill="none" filter="url(#fxtebhmpbxu2q)" style="stroke: #A80036; stroke-width: 2.0;"/><text fill="#000000" font-family="sans-serif" font-size="14" lengthAdjust="spacingAndGlyphs" textLength="105" x="277" y="467.8857">Portfolio Owner</text><ellipse cx="332.5" cy="481.1875" fill="#FEFECE" filter="url(#fxtebhmpbxu2q)" rx="8" ry="8" style="stroke: #A80036; stroke-width: 2.0;"/><path d="M332.5,489.1875 L332.5,516.1875 M319.5,497.1875 L345.5,497.1875 M332.5,516.1875 L319.5,531.1875 M332.5,516.1875 L345.5,531.1875 " fill="none" filter="url(#fxtebhmpbxu2q)" style="stroke: #A80036; stroke-width: 2.0;"/><text fill="#000000" font-family="sans-serif" font-size="14" lengthAdjust="spacingAndGlyphs" textLength="103" x="398" y="82.9951">Security Official</text><ellipse cx="452.5" cy="13" fill="#FEFECE" filter="url(#fxtebhmpbxu2q)" rx="8" ry="8" style="stroke: #A80036; stroke-width: 2.0;"/><path d="M452.5,21 L452.5,48 M439.5,29 L465.5,29 M452.5,48 L439.5,63 M452.5,48 L465.5,63 " fill="none" filter="url(#fxtebhmpbxu2q)" style="stroke: #A80036; stroke-width: 2.0;"/><text fill="#000000" font-family="sans-serif" font-size="14" lengthAdjust="spacingAndGlyphs" textLength="103" x="398" y="467.8857">Security Official</text><ellipse cx="452.5" cy="481.1875" fill="#FEFECE" filter="url(#fxtebhmpbxu2q)" rx="8" ry="8" style="stroke: #A80036; stroke-width: 2.0;"/><path d="M452.5,489.1875 L452.5,516.1875 M439.5,497.1875 L465.5,497.1875 M452.5,516.1875 L439.5,531.1875 M452.5,516.1875 L465.5,531.1875 " fill="none" filter="url(#fxtebhmpbxu2q)" style="stroke: #A80036; stroke-width: 2.0;"/><rect fill="#FEFECE" filter="url(#fxtebhmpbxu2q)" height="30.2969" style="stroke: #A80036; stroke-width: 1.5;" width="83" x="517" y="51"/><text fill="#000000" font-family="sans-serif" font-size="14" lengthAdjust="spacingAndGlyphs" textLength="69" x="524" y="70.9951">Cloud.gov</text><rect fill="#FEFECE" filter="url(#fxtebhmpbxu2q)" height="30.2969" style="stroke: #A80036; stroke-width: 1.5;" width="83" x="517" y="454.8906"/><text fill="#000000" font-family="sans-serif" font-size="14" lengthAdjust="spacingAndGlyphs" textLength="69" x="524" y="474.8857">Cloud.gov</text><rect fill="#FEFECE" filter="url(#fxtebhmpbxu2q)" height="30.2969" style="stroke: #A80036; stroke-width: 1.5;" width="60" x="900.5" y="51"/><text fill="#000000" font-family="sans-serif" font-size="14" lengthAdjust="spacingAndGlyphs" textLength="46" x="907.5" y="70.9951">Github</text><rect fill="#FEFECE" filter="url(#fxtebhmpbxu2q)" height="30.2969" style="stroke: #A80036; stroke-width: 1.5;" width="60" x="900.5" y="454.8906"/><text fill="#000000" font-family="sans-serif" font-size="14" lengthAdjust="spacingAndGlyphs" textLength="46" x="907.5" y="474.8857">Github</text><rect fill="#FEFECE" filter="url(#fxtebhmpbxu2q)" height="30.2969" style="stroke: #A80036; stroke-width: 1.5;" width="142" x="974.5" y="51"/><text fill="#000000" font-family="sans-serif" font-size="14" lengthAdjust="spacingAndGlyphs" textLength="128" x="981.5" y="70.9951">Vuls Repo UI &amp; API</text><rect fill="#FEFECE" filter="url(#fxtebhmpbxu2q)" height="30.2969" style="stroke: #A80036; stroke-width: 1.5;" width="142" x="974.5" y="454.8906"/><text fill="#000000" font-family="sans-serif" font-size="14" lengthAdjust="spacingAndGlyphs" textLength="128" x="981.5" y="474.8857">Vuls Repo UI &amp; API</text><rect fill="#FEFECE" filter="url(#fxtebhmpbxu2q)" height="30.2969" style="stroke: #A80036; stroke-width: 1.5;" width="160" x="1130.5" y="51"/><text fill="#000000" font-family="sans-serif" font-size="14" lengthAdjust="spacingAndGlyphs" textLength="146" x="1137.5" y="70.9951">Vuls Scan API Service</text><rect fill="#FEFECE" filter="url(#fxtebhmpbxu2q)" height="30.2969" style="stroke: #A80036; stroke-width: 1.5;" width="160" x="1130.5" y="454.8906"/><text fill="#000000" font-family="sans-serif" font-size="14" lengthAdjust="spacingAndGlyphs" textLength="146" x="1137.5" y="474.8857">Vuls Scan API Service</text><rect fill="#FEFECE" filter="url(#fxtebhmpbxu2q)" height="30.2969" style="stroke: #A80036; stroke-width: 1.5;" width="154" x="1569.5" y="51"/><text fill="#000000" font-family="sans-serif" font-size="14" lengthAdjust="spacingAndGlyphs" textLength="140" x="1576.5" y="70.9951">Vuls Vulnerability DB</text><rect fill="#FEFECE" filter="url(#fxtebhmpbxu2q)" height="30.2969" style="stroke: #A80036; stroke-width: 1.5;" width="154" x="1569.5" y="454.8906"/><text fill="#000000" font-family="sans-serif" font-size="14" lengthAdjust="spacingAndGlyphs" textLength="140" x="1576.5" y="474.8857">Vuls Vulnerability DB</text><rect fill="#FEFECE" filter="url(#fxtebhmpbxu2q)" height="30.2969" style="stroke: #A80036; stroke-width: 1.5;" width="31" x="1737.5" y="51"/><text fill="#000000" font-family="sans-serif" font-size="14" lengthAdjust="spacingAndGlyphs" textLength="17" x="1744.5" y="70.9951">ce</text><rect fill="#FEFECE" filter="url(#fxtebhmpbxu2q)" height="30.2969" style="stroke: #A80036; stroke-width: 1.5;" width="31" x="1737.5" y="454.8906"/><text fill="#000000" font-family="sans-serif" font-size="14" lengthAdjust="spacingAndGlyphs" textLength="17" x="1744.5" y="474.8857">ce</text><polygon fill="#A80036" points="548.5,113.4297,558.5,117.4297,548.5,121.4297,552.5,117.4297" style="stroke: #A80036; stroke-width: 1.0;"/><line style="stroke: #A80036; stroke-width: 1.0;" x1="62" x2="554.5" y1="117.4297" y2="117.4297"/><text fill="#000000" font-family="sans-serif" font-size="13" lengthAdjust="spacingAndGlyphs" textLength="188" x="69" y="112.3638">Deploy app with manifest.yml</text><polygon fill="#A80036" points="920.5,142.5625,930.5,146.5625,920.5,150.5625,924.5,146.5625" style="stroke: #A80036; stroke-width: 1.0;"/><line style="stroke: #A80036; stroke-width: 1.0;" x1="560.5" x2="926.5" y1="146.5625" y2="146.5625"/><text fill="#000000" font-family="sans-serif" font-size="13" lengthAdjust="spacingAndGlyphs" textLength="226" x="567.5" y="141.4966">Pull buildpack contents from Github</text><polygon fill="#A80036" points="571.5,171.6953,561.5,175.6953,571.5,179.6953,567.5,175.6953" style="stroke: #A80036; stroke-width: 1.0;"/><line style="stroke: #A80036; stroke-width: 1.0;" x1="565.5" x2="931.5" y1="175.6953" y2="175.6953"/><text fill="#000000" font-family="sans-serif" font-size="13" lengthAdjust="spacingAndGlyphs" textLength="348" x="577.5" y="170.6294">Buildpack configuration and executables staged in app</text><polygon fill="#A80036" points="1200.5,200.8281,1210.5,204.8281,1200.5,208.8281,1204.5,204.8281" style="stroke: #A80036; stroke-width: 1.0;"/><line style="stroke: #A80036; stroke-width: 1.0;" x1="560.5" x2="1206.5" y1="204.8281" y2="204.8281"/><text fill="#000000" font-family="sans-serif" font-size="13" lengthAdjust="spacingAndGlyphs" textLength="363" x="567.5" y="199.7622">Scan app instance and POST to vuls server with HTTP API</text><polygon fill="#A80036" points="1636.5,229.9609,1646.5,233.9609,1636.5,237.9609,1640.5,233.9609" style="stroke: #A80036; stroke-width: 1.0;"/><line style="stroke: #A80036; stroke-width: 1.0;" x1="1212.5" x2="1642.5" y1="233.9609" y2="233.9609"/><text fill="#000000" font-family="sans-serif" font-size="13" lengthAdjust="spacingAndGlyphs" textLength="412" x="1219.5" y="228.895">Analyze dependencies for vulnerabilities and save analysis to DB</text><polygon fill="#A80036" points="1223.5,259.0938,1213.5,263.0938,1223.5,267.0938,1219.5,263.0938" style="stroke: #A80036; stroke-width: 1.0;"/><line style="stroke: #A80036; stroke-width: 1.0;" x1="1217.5" x2="1647.5" y1="263.0938" y2="263.0938"/><text fill="#000000" font-family="sans-serif" font-size="13" lengthAdjust="spacingAndGlyphs" textLength="245" x="1229.5" y="258.0278">Enrich scan data with vuln annotations</text><polygon fill="#A80036" points="571.5,288.2266,561.5,292.2266,571.5,296.2266,567.5,292.2266" style="stroke: #A80036; stroke-width: 1.0;"/><line style="stroke: #A80036; stroke-width: 1.0;" x1="565.5" x2="1211.5" y1="292.2266" y2="292.2266"/><text fill="#000000" font-family="sans-serif" font-size="13" lengthAdjust="spacingAndGlyphs" textLength="333" x="577.5" y="287.1606">Scan data sent in response, annotated with analysis</text><polygon fill="#A80036" points="73,317.3594,63,321.3594,73,325.3594,69,321.3594" style="stroke: #A80036; stroke-width: 1.0;"/><line style="stroke: #A80036; stroke-width: 1.0;" x1="67" x2="559.5" y1="321.3594" y2="321.3594"/><text fill="#000000" font-family="sans-serif" font-size="13" lengthAdjust="spacingAndGlyphs" textLength="236" x="79" y="316.2935">Show deployment with vuls buildpack</text><polygon fill="#A80036" points="1035.5,346.4922,1045.5,350.4922,1035.5,354.4922,1039.5,350.4922" style="stroke: #A80036; stroke-width: 1.0;"/><line style="stroke: #A80036; stroke-width: 1.0;" x1="62" x2="1041.5" y1="350.4922" y2="350.4922"/><text fill="#000000" font-family="sans-serif" font-size="13" lengthAdjust="spacingAndGlyphs" textLength="300" x="69" y="345.4263">Read app instance status from report server UI</text><polygon fill="#A80036" points="1058.5,375.625,1048.5,379.625,1058.5,383.625,1054.5,379.625" style="stroke: #A80036; stroke-width: 1.0;"/><line style="stroke: #A80036; stroke-width: 1.0;" x1="1052.5" x2="1754" y1="379.625" y2="379.625"/><text fill="#000000" font-family="sans-serif" font-size="13" lengthAdjust="spacingAndGlyphs" textLength="300" x="1064.5" y="374.5591">Read app instance status from report server UI</text><polygon fill="#A80036" points="1035.5,404.7578,1045.5,408.7578,1035.5,412.7578,1039.5,408.7578" style="stroke: #A80036; stroke-width: 1.0;"/><line style="stroke: #A80036; stroke-width: 1.0;" x1="452.5" x2="1041.5" y1="408.7578" y2="408.7578"/><text fill="#000000" font-family="sans-serif" font-size="13" lengthAdjust="spacingAndGlyphs" textLength="300" x="459.5" y="403.6919">Read app instance status from report server UI</text><polygon fill="#A80036" points="1035.5,433.8906,1045.5,437.8906,1035.5,441.8906,1039.5,437.8906" style="stroke: #A80036; stroke-width: 1.0;"/><line style="stroke: #A80036; stroke-width: 1.0;" x1="332.5" x2="1041.5" y1="437.8906" y2="437.8906"/><text fill="#000000" font-family="sans-serif" font-size="13" lengthAdjust="spacingAndGlyphs" textLength="300" x="339.5" y="432.8247">Read app instance status from report server UI</text><!--MD5=[e3a0fcb9570fbf38f2bd9f704163c4f9]
@startuml
actor "App Developer" as dev
actor "Cloud.gov Engineer" as ceng
actor "Portfolio Owner" as po
actor "Security Official" as so
participant Cloud.gov as cg
participant Github as gh
participant "Vuls Repo UI & API" as vso
participant "Vuls Scan API Service" as vsa
participant "Vuls Vulnerability DB" as vdb


dev->cg: Deploy app with manifest.yml
cg->gh: Pull buildpack contents from Github
gh->cg: Buildpack configuration and executables staged in app
cg->vsa: Scan app instance and POST to vuls server with HTTP API
vsa->vdb: Analyze dependencies for vulnerabilities and save analysis to DB
vdb->vsa: Enrich scan data with vuln annotations
vsa->cg: Scan data sent in response, annotated with analysis
cg->dev: Show deployment with vuls buildpack
dev->vso: Read app instance status from report server UI
ce->vso: Read app instance status from report server UI
so->vso: Read app instance status from report server UI
po->vso: Read app instance status from report server UI
@enduml

PlantUML version 1.2020.13(Sat Jun 13 12:26:38 UTC 2020)
(GPL source distribution)
Java Runtime: OpenJDK Runtime Environment
JVM: OpenJDK 64-Bit Server VM
Default Encoding: UTF-8
Language: en
Country: null
--></g></svg>